<svg xmlns="http://www.w3.org/2000/svg" width="156.832" height="48.139" viewBox="0 0 156.832 48.139">
  <g id="Group_32" data-name="Group 32" transform="translate(-0.587 -0.584)">
    <path id="Path_25" data-name="Path 25" d="M152.28,48.944H6.169a5.533,5.533,0,0,1-5.36-5.692V6.5A5.533,5.533,0,0,1,6.169.8H152.28A5.533,5.533,0,0,1,157.641,6.5V43.252a5.533,5.533,0,0,1-5.361,5.692" transform="translate(-0.221 -0.22)"/>
    <path id="Path_28" data-name="Path 28" d="M73.844,15.094l-.6-1.883c-.147-.465-.272-.984-.386-1.427h-.023c-.111.442-.227.973-.36,1.427l-.59,1.883Zm-2.187,1.052L71,18.313H69.559l2.451-7.641h1.778l2.482,7.641H74.774l-.692-2.167" transform="translate(-19.054 -2.374)" fill="#fff"/>
    <path id="Path_29" data-name="Path 29" d="M81.1,13.594l.9,2.8c.159.488.269.93.372,1.384H82.4c.1-.454.227-.885.374-1.384l.885-2.8h1.461l-2.107,5.519h-1.37l-2.053-5.519" transform="translate(-21.803 -3.059)" fill="#fff"/>
    <path id="Path_30" data-name="Path 30" d="M91.755,16.366c-.987-.011-1.929.193-1.929,1.032a.732.732,0,0,0,.794.794,1.142,1.142,0,0,0,1.1-.76.873.873,0,0,0,.037-.306Zm1.359,1.373a7.4,7.4,0,0,0,.091,1.325H91.945l-.1-.61h-.037a2.016,2.016,0,0,1-1.631.735,1.635,1.635,0,0,1-1.733-1.642c0-1.384,1.234-2.1,3.273-2.085V15.37c0-.363-.145-.964-1.12-.964a2.926,2.926,0,0,0-1.486.408l-.272-.908a3.982,3.982,0,0,1,2-.485,2.067,2.067,0,0,1,2.277,2.334" transform="translate(-24.228 -3.017)" fill="#fff"/>
    <path id="Path_31" data-name="Path 31" d="M97.56,12.725h1.393v5.519H97.56Zm.689-.794a.788.788,0,1,1,.014,0" transform="translate(-26.703 -2.316)" fill="#fff"/>
    <path id="Path_32" data-name="Path 32" d="M102.27,18.154h1.395v-8.06H102.27Zm0,0" transform="translate(-28.015 -2.24)" fill="#fff"/>
    <path id="Path_33" data-name="Path 33" d="M109.747,16.366c-.987-.011-1.928.193-1.928,1.032a.732.732,0,0,0,.794.794,1.145,1.145,0,0,0,1.1-.76.94.94,0,0,0,.034-.306Zm1.358,1.373a7.381,7.381,0,0,0,.091,1.325h-1.256l-.1-.61H109.8a2.026,2.026,0,0,1-1.634.735,1.637,1.637,0,0,1-1.732-1.642c0-1.384,1.236-2.1,3.275-2.085V15.37c0-.363-.147-.964-1.123-.964a2.908,2.908,0,0,0-1.483.408l-.272-.908a3.97,3.97,0,0,1,1.994-.485,2.067,2.067,0,0,1,2.278,2.334" transform="translate(-29.156 -3.017)" fill="#fff"/>
    <path id="Path_34" data-name="Path 34" d="M116.961,15.874a1.551,1.551,0,0,0,.034.329,1.274,1.274,0,0,0,1.234.976c.873,0,1.407-.692,1.407-1.812,0-.976-.465-1.77-1.4-1.77a1.294,1.294,0,0,0-1.234,1.021,1.68,1.68,0,0,0-.045.363Zm-1.4-5.78h1.4v3.3h.023a1.992,1.992,0,0,1,1.767-.882c1.35,0,2.311,1.12,2.3,2.8,0,1.983-1.257,2.97-2.5,2.97a1.9,1.9,0,0,1-1.745-.953h-.023l-.068.828H115.52c.023-.374.045-.987.045-1.543" transform="translate(-31.644 -2.238)" fill="#fff"/>
    <path id="Path_35" data-name="Path 35" d="M125.4,18.154h1.393v-8.06H125.4Zm0,0" transform="translate(-34.35 -2.24)" fill="#fff"/>
    <path id="Path_36" data-name="Path 36" d="M133.373,15.722a1.187,1.187,0,0,0-1.143-1.35,1.365,1.365,0,0,0-1.282,1.35Zm-2.425.973a1.5,1.5,0,0,0,1.7,1.429,4.44,4.44,0,0,0,1.528-.25l.2.95a4.91,4.91,0,0,1-1.926.352,2.611,2.611,0,0,1-2.848-2.785,2.734,2.734,0,0,1,2.7-2.969,2.4,2.4,0,0,1,2.379,2.686,3.394,3.394,0,0,1-.045.587" transform="translate(-35.503 -3.017)" fill="#fff"/>
    <path id="Path_37" data-name="Path 37" d="M145.081,18.181c.791,0,1.347-.771,1.347-1.892,0-.862-.386-1.861-1.336-1.861-.987,0-1.384.964-1.384,1.883,0,1.064.533,1.869,1.358,1.869Zm-.046,1.01a2.668,2.668,0,0,1-2.765-2.845,2.723,2.723,0,0,1,2.856-2.924,2.647,2.647,0,0,1,2.742,2.833,2.733,2.733,0,0,1-2.822,2.936" transform="translate(-38.972 -3.017)" fill="#fff"/>
    <path id="Path_38" data-name="Path 38" d="M152.222,15.189c0-.635-.02-1.169-.042-1.645h1.211l.068.828h.034a2.027,2.027,0,0,1,1.77-.95c.961,0,1.96.621,1.96,2.368v3.273h-1.4V15.949c0-.794-.295-1.4-1.052-1.4a1.171,1.171,0,0,0-1.089.817,1.286,1.286,0,0,0-.068.442v3.25h-1.4" transform="translate(-41.686 -3.019)" fill="#fff"/>
    <path id="Path_39" data-name="Path 39" d="M167.16,11.641v1.415h1.324V14.1H167.16v2.425c0,.681.182,1.021.712,1.021a1.817,1.817,0,0,0,.545-.057l.023,1.052a2.983,2.983,0,0,1-1.009.148,1.606,1.606,0,0,1-1.2-.451,2.18,2.18,0,0,1-.442-1.554V14.1H165V13.056h.783V12.026" transform="translate(-45.199 -2.598)" fill="#fff"/>
    <path id="Path_40" data-name="Path 40" d="M171.934,10.094h1.395v3.287h.023a1.832,1.832,0,0,1,.692-.624,1.985,1.985,0,0,1,.961-.247c.942,0,1.926.621,1.926,2.391v3.253h-1.393V15.049c0-.794-.295-1.407-1.066-1.407a1.163,1.163,0,0,0-1.086.783,1.244,1.244,0,0,0-.057.42v3.31h-1.395" transform="translate(-47.097 -2.24)" fill="#fff"/>
    <path id="Path_41" data-name="Path 41" d="M184.826,15.722a1.188,1.188,0,0,0-1.146-1.35,1.362,1.362,0,0,0-1.279,1.35Zm-2.425.973a1.5,1.5,0,0,0,1.7,1.429,4.423,4.423,0,0,0,1.529-.25l.207.95a4.915,4.915,0,0,1-1.929.352,2.61,2.61,0,0,1-2.844-2.785,2.733,2.733,0,0,1,2.7-2.969,2.4,2.4,0,0,1,2.38,2.686,3.379,3.379,0,0,1-.046.587" transform="translate(-49.598 -3.017)" fill="#fff"/>
    <path id="Path_42" data-name="Path 42" d="M40.894,28.117a6.791,6.791,0,0,1,3.239-5.706,6.963,6.963,0,0,0-5.488-2.967c-2.306-.241-4.544,1.384-5.718,1.384-1.2,0-3.012-1.359-4.961-1.319a7.31,7.31,0,0,0-6.149,3.749c-2.655,4.6-.675,11.365,1.872,15.086,1.276,1.821,2.762,3.857,4.711,3.783,1.906-.079,2.618-1.214,4.918-1.214,2.28,0,2.95,1.214,4.938,1.169,2.045-.034,3.333-1.829,4.561-3.67A14.955,14.955,0,0,0,44.9,34.164a6.576,6.576,0,0,1-4.01-6.047" transform="translate(-5.631 -3.704)" fill="#fff"/>
    <path id="Path_43" data-name="Path 43" d="M41.7,14.275a6.688,6.688,0,0,0,1.532-4.8,6.831,6.831,0,0,0-4.407,2.28,6.366,6.366,0,0,0-1.571,4.62,5.625,5.625,0,0,0,4.447-2.1" transform="translate(-10.196 -2.596)" fill="#fff"/>
    <path id="Path_44" data-name="Path 44" d="M77,37.917l-1.316-4.064q-.208-.621-.786-2.93h-.045c-.153.661-.4,1.639-.74,2.93l-1.293,4.064Zm4.549,6.492H78.9l-1.455-4.572H72.388L71,44.409H68.414l5.014-15.565H76.52" transform="translate(-18.74 -6.044)" fill="#fff"/>
    <path id="Path_45" data-name="Path 45" d="M97.643,40.3a4.62,4.62,0,0,0-.74-2.7,2.555,2.555,0,0,0-2.17-1.109,2.588,2.588,0,0,0-1.673.613,2.87,2.87,0,0,0-.984,1.608,3.237,3.237,0,0,0-.113.757v1.872a3,3,0,0,0,.749,2.068,2.485,2.485,0,0,0,1.951.842,2.537,2.537,0,0,0,2.192-1.086,4.746,4.746,0,0,0,.789-2.862m2.541-.094a6.376,6.376,0,0,1-1.549,4.527,4.525,4.525,0,0,1-3.44,1.478,3.443,3.443,0,0,1-3.188-1.594h-.045v5.913h-2.5v-12.1q0-1.8-.091-3.7h2.192l.139,1.781h.048a4.433,4.433,0,0,1,7.1-.44,6.2,6.2,0,0,1,1.33,4.132" transform="translate(-24.482 -6.646)" fill="#fff"/>
    <path id="Path_46" data-name="Path 46" d="M115.421,40.3a4.624,4.624,0,0,0-.74-2.7,2.557,2.557,0,0,0-2.17-1.109,2.593,2.593,0,0,0-1.673.613,2.83,2.83,0,0,0-.979,1.608,3.131,3.131,0,0,0-.116.757v1.872a3,3,0,0,0,.746,2.068,2.488,2.488,0,0,0,1.955.842,2.544,2.544,0,0,0,2.192-1.086,4.781,4.781,0,0,0,.786-2.862m2.538-.094a6.374,6.374,0,0,1-1.546,4.527,4.518,4.518,0,0,1-3.44,1.478,3.45,3.45,0,0,1-3.188-1.594h-.042v5.913h-2.5v-12.1q0-1.8-.091-3.7h2.193l.139,1.781h.049a4.433,4.433,0,0,1,7.1-.44,6.188,6.188,0,0,1,1.324,4.132" transform="translate(-29.353 -6.646)" fill="#fff"/>
    <path id="Path_47" data-name="Path 47" d="M138.273,39.956a4.152,4.152,0,0,1-1.384,3.233,6.132,6.132,0,0,1-4.237,1.361,7.444,7.444,0,0,1-4.039-.97l.579-2.076a6.856,6.856,0,0,0,3.608.99,3.41,3.41,0,0,0,2.195-.632,2.083,2.083,0,0,0,.783-1.7,2.172,2.172,0,0,0-.643-1.6,6.065,6.065,0,0,0-2.15-1.2Q128.9,35.834,128.9,32.9a3.949,3.949,0,0,1,1.433-3.145,5.654,5.654,0,0,1,3.809-1.228,7.577,7.577,0,0,1,3.534.74l-.624,2.034a6.133,6.133,0,0,0-2.978-.718,3.006,3.006,0,0,0-2.053.647,1.857,1.857,0,0,0-.624,1.41,1.9,1.9,0,0,0,.715,1.523,8.123,8.123,0,0,0,2.263,1.2,7.671,7.671,0,0,1,2.955,1.892,3.974,3.974,0,0,1,.948,2.7" transform="translate(-35.231 -5.949)" fill="#fff"/>
    <path id="Path_48" data-name="Path 48" d="M150.691,35.638h-2.749v5.448q0,2.08,1.458,2.079a4.486,4.486,0,0,0,1.107-.113l.068,1.892a5.534,5.534,0,0,1-1.937.278,3,3,0,0,1-2.311-.9,4.427,4.427,0,0,1-.831-3.026V35.638h-1.639V33.766h1.639V31.713l2.448-.74v2.794h2.749" transform="translate(-39.406 -6.569)" fill="#fff"/>
    <path id="Path_49" data-name="Path 49" d="M163.619,40.335a5.056,5.056,0,0,0-.672-2.663,2.457,2.457,0,0,0-2.238-1.344,2.5,2.5,0,0,0-2.286,1.344,5.154,5.154,0,0,0-.667,2.711,5.036,5.036,0,0,0,.667,2.66,2.517,2.517,0,0,0,2.266,1.344,2.49,2.49,0,0,0,2.238-1.367,5.04,5.04,0,0,0,.692-2.686m2.587-.079a6.146,6.146,0,0,1-1.478,4.249,5.272,5.272,0,0,1-4.11,1.707,5.026,5.026,0,0,1-3.94-1.639,5.975,5.975,0,0,1-1.463-4.132,6.087,6.087,0,0,1,1.512-4.271A5.222,5.222,0,0,1,160.8,34.5a5.13,5.13,0,0,1,3.974,1.639,5.923,5.923,0,0,1,1.433,4.113" transform="translate(-42.518 -7.471)" fill="#fff"/>
    <path id="Path_50" data-name="Path 50" d="M179.251,36.929a4.339,4.339,0,0,0-.786-.068,2.362,2.362,0,0,0-2.034.993,3.75,3.75,0,0,0-.622,2.215v5.891h-2.493l.02-7.689q0-1.944-.091-3.537h2.172l.091,2.15h.065a3.856,3.856,0,0,1,1.248-1.778,3.03,3.03,0,0,1,1.8-.6,4.126,4.126,0,0,1,.624.045" transform="translate(-47.457 -7.485)" fill="#fff"/>
    <path id="Path_51" data-name="Path 51" d="M190.732,39.161a3.4,3.4,0,0,0-.482-1.917,2.186,2.186,0,0,0-1.989-1.041,2.372,2.372,0,0,0-1.985,1.018,3.686,3.686,0,0,0-.735,1.94Zm2.376.647a6.09,6.09,0,0,1-.088,1.132h-7.479a3.24,3.24,0,0,0,1.083,2.541,3.7,3.7,0,0,0,2.448.783,8.275,8.275,0,0,0,3.026-.53l.392,1.733a9.44,9.44,0,0,1-3.767.695,5.435,5.435,0,0,1-4.1-1.54,5.672,5.672,0,0,1-1.489-4.121,6.416,6.416,0,0,1,1.387-4.226,4.77,4.77,0,0,1,3.922-1.8,4.182,4.182,0,0,1,3.676,1.8,6.055,6.055,0,0,1,.987,3.534" transform="translate(-50.166 -7.465)" fill="#fff"/>
  </g>
</svg>
