<svg width="20" height="20" viewBox="0 0 20 20" fill="none" xmlns="http://www.w3.org/2000/svg">
<path d="M2.99982 10H11.357C11.9698 10 12.564 9.88354 13.1397 9.65746C13.6969 9.43138 14.217 9.09982 14.6441 8.68204C15.0713 8.26408 15.4056 7.768 15.6471 7.22206C15.8885 6.67612 15.9998 6.09094 15.9998 5.5C15.9998 4.90906 15.8885 4.32388 15.6471 3.77794C15.4056 3.232 15.0713 2.73592 14.6441 2.31796C14.217 1.90018 13.6969 1.56862 13.1397 1.34254C12.564 1.11646 11.9698 1 11.357 1H2.99982V10ZM2.99982 10H12.6248C13.7798 10 14.8999 10.4741 15.7224 11.318C16.5449 12.162 16.9998 13.3066 16.9998 14.5C16.9998 15.6934 16.5449 16.838 15.7224 17.682C14.8999 18.5259 13.7798 19 12.6248 19H2.99982V10Z" stroke="#504E40" stroke-width="1.5" stroke-linecap="round" stroke-linejoin="round"/>
</svg>
