<svg width="21" height="21" viewBox="0 0 21 21" fill="none" xmlns="http://www.w3.org/2000/svg">
<g id="Group 17556">
<g id="Group 17555">
<path id="Vector" d="M9.61056 17.6577L8.70607 17.6741L5.09953 19.9966C5.08721 20.0052 5.07013 19.9966 5.07013 19.9819V17.6485H3.30847C2.03331 17.6485 1 16.6445 1 15.4059V9.04259C1 7.80406 2.03331 6.80005 3.30847 6.80005H13.0915C14.3665 6.80005 15.4 7.80406 15.4 9.04259V15.4059C15.4 16.6445 14.3665 17.6485 13.0915 17.6485L12.1483 17.6577H9.61056Z" stroke="black" stroke-width="1.23831" stroke-linecap="round" stroke-linejoin="round"/>
<path id="Vector_2" d="M17.5 14C18.6689 14 19 12.8894 19 11.5194V4.48059C19 3.11059 18.0528 2 16.8839 2H7.9161C6.7474 2 5.8 3.11059 5.8 4.48059" stroke="black" stroke-width="1.23831" stroke-linecap="square" stroke-linejoin="round"/>
<line id="Line 564" x1="3.3999" y1="11.1" x2="11.7999" y2="11.1" stroke="black"/>
<line id="Line 565" x1="3.3999" y1="13.5" x2="8.1999" y2="13.5" stroke="black"/>
</g>
<path id="Rectangle 6232" d="M18.5 4.5C17.3954 4.5 16.5 3.60457 16.5 2.5C16.5 1.39543 17.3954 0.5 18.5 0.5C19.6046 0.5 20.5 1.39543 20.5 2.5C20.5 3.60457 19.6046 4.5 18.5 4.5Z" fill="#E55555" stroke="black"/>
</g>
</svg>
