<svg width="31" height="31" viewBox="0 0 31 31" fill="none" xmlns="http://www.w3.org/2000/svg">
<g id="Group 17118">
<path id="Vector" d="M15.5 30C23.5081 30 30 23.5081 30 15.5C30 7.49187 23.5081 1 15.5 1C7.49187 1 1 7.49187 1 15.5C1 23.5081 7.49187 30 15.5 30Z" stroke="#CCCCCC"/>
<path id="close-svgrepo-com" fill-rule="evenodd" clip-rule="evenodd" d="M21.2663 10.8663C21.3438 10.7928 21.4057 10.7045 21.4484 10.6066C21.4912 10.5088 21.5139 10.4033 21.5153 10.2966C21.5166 10.1898 21.4966 10.0838 21.4564 9.98492C21.4161 9.88601 21.3565 9.79615 21.281 9.72064C21.2055 9.64514 21.1156 9.58551 21.0167 9.54528C20.9178 9.50505 20.8118 9.48503 20.7051 9.48639C20.5983 9.48776 20.4929 9.51049 20.395 9.55324C20.2972 9.59599 20.2089 9.6579 20.1353 9.73531L15.5003 14.3693L10.8663 9.73431C10.792 9.65998 10.7038 9.60102 10.6067 9.5608C10.5095 9.52057 10.4055 9.49987 10.3003 9.49987C10.1952 9.49987 10.0911 9.52057 9.99402 9.5608C9.8969 9.60102 9.80866 9.65998 9.73433 9.73431C9.66001 9.80864 9.60105 9.89688 9.56082 9.99399C9.52059 10.0911 9.49989 10.1952 9.49989 10.3003C9.49989 10.4054 9.52059 10.5095 9.56082 10.6066C9.60105 10.7037 9.66001 10.792 9.73433 10.8663L14.3693 15.5003L9.73433 20.1343C9.65692 20.2079 9.59501 20.2962 9.55226 20.394C9.50951 20.4919 9.48678 20.5973 9.48542 20.7041C9.48405 20.8108 9.50407 20.9168 9.5443 21.0157C9.58453 21.1146 9.64416 21.2045 9.71967 21.28C9.79517 21.3555 9.88503 21.4151 9.98394 21.4553C10.0829 21.4956 10.1888 21.5156 10.2956 21.5142C10.4024 21.5129 10.5078 21.4901 10.6056 21.4474C10.7035 21.4046 10.7918 21.3427 10.8653 21.2653L15.5003 16.6313L20.1343 21.2653C20.2079 21.3427 20.2962 21.4046 20.394 21.4474C20.4919 21.4901 20.5973 21.5129 20.7041 21.5142C20.8108 21.5156 20.9168 21.4956 21.0157 21.4553C21.1146 21.4151 21.2045 21.3555 21.28 21.28C21.3555 21.2045 21.4151 21.1146 21.4554 21.0157C21.4956 20.9168 21.5156 20.8108 21.5143 20.7041C21.5129 20.5973 21.4902 20.4919 21.4474 20.394C21.4047 20.2962 21.3427 20.2079 21.2653 20.1343L16.6313 15.5003L21.2663 10.8663Z" fill="#707070" stroke="#707070" stroke-width="0.5"/>
</g>
</svg>
