<svg width="24" height="24" viewBox="0 0 24 24" fill="none" xmlns="http://www.w3.org/2000/svg">
<g id="Layer_1">
<g id="Group 40201">
<path id="Vector" d="M8.99976 4.14286V2.48358C8.99976 2.09317 9.14261 1.70275 9.38071 1.42946C9.6188 1.15617 9.95214 1 10.2855 1H11.9998H13.714C14.0474 1 14.3807 1.15617 14.6188 1.42946C14.8569 1.70275 14.9998 2.09317 14.9998 2.48358V4.14286" stroke="black" stroke-width="1" stroke-miterlimit="10"/>
<path id="Vector_2" d="M19.6372 4.14282C19.9756 4.14282 20.2656 4.34777 20.3945 4.68935L20.9424 6.12397C21.1519 6.68757 20.7651 7.30241 20.1851 7.28533H3.81359C3.24961 7.28533 2.84677 6.67049 3.05625 6.12397L3.60411 4.68935C3.73302 4.36485 4.02307 4.14282 4.36146 4.14282H19.6533H19.6372Z" stroke="black" stroke-width="1" stroke-miterlimit="10"/>
<path id="Vector_3" d="M19.5002 7.28564L18.3948 21.2589C18.3488 21.735 18.1185 22.1666 17.7346 22.494C17.3662 22.8214 16.8749 22.9999 16.3529 22.9999H7.64763C7.14098 22.9999 6.64968 22.8214 6.26585 22.494C5.89738 22.1666 5.65173 21.735 5.60567 21.2589L4.50024 7.28564" stroke="black" stroke-width="1" stroke-miterlimit="10"/>
<g id="Group 40202">
<path id="Vector_4" d="M12.0007 12V19.8571" stroke="black" stroke-width="1" stroke-miterlimit="10" stroke-linecap="round"/>
<path id="Vector_5" d="M15.7502 12L15.0002 19.8571" stroke="black" stroke-width="1" stroke-miterlimit="10" stroke-linecap="round"/>
<path id="Vector_6" d="M8.25 12L9 19.8571" stroke="black" stroke-width="1" stroke-miterlimit="10" stroke-linecap="round"/>
</g>
</g>
</g>
</svg>
