<svg width="38" height="38" viewBox="0 0 38 38" fill="none" xmlns="http://www.w3.org/2000/svg">
<g id="Group 39698">
<path id="Vector" d="M17.5614 25.4137C17.5614 25.6662 17.6877 26.0449 17.6877 26.4237C17.6877 28.1912 17.0564 29.7062 15.7939 30.9687L13.2689 33.4937C12.0064 34.7562 10.4914 35.3874 8.72394 35.3874C5.18894 35.3874 2.28519 32.4837 2.28519 28.9487C2.28519 27.1812 2.91644 25.6662 4.17894 24.4037L6.70394 21.8787C7.96644 20.6162 9.48144 19.9849 11.2489 19.9849C11.6277 19.9849 11.8802 19.9849 12.2589 20.1112L14.1527 18.2174C13.2689 17.8387 12.2589 17.7124 11.2489 17.7124C8.85019 17.7124 6.70394 18.5962 5.0627 20.2374L2.5377 22.7624C0.896445 24.4037 0.0126953 26.5499 0.0126953 28.9487C0.0126953 33.7462 3.92644 37.6599 8.72394 37.6599C11.1227 37.6599 13.2689 36.7762 14.9102 35.1349L17.4352 32.6099C19.0764 30.9687 19.9602 28.8224 19.9602 26.4237C19.9602 25.4137 19.8339 24.4037 19.4552 23.5199L17.5614 25.4137Z" fill="black"/>
<path id="Vector_2" d="M28.9237 0.0375977C26.525 0.0375977 24.3788 0.921348 22.7375 2.5626L20.2125 5.0876C18.5713 6.72885 17.6875 8.8751 17.6875 11.2738C17.6875 12.2838 17.8137 13.2938 18.1925 14.1776L20.0862 12.2838C20.0862 12.0313 19.96 11.6526 19.96 11.2738C19.96 9.50635 20.5912 7.99135 21.8537 6.72885L24.3787 4.20385C25.6412 2.94135 27.1562 2.3101 28.9237 2.3101C32.4587 2.3101 35.3625 5.21385 35.3625 8.74885C35.3625 10.5163 34.7312 12.0313 33.4687 13.2938L30.9437 15.8188C29.6812 17.0813 28.1663 17.7126 26.3988 17.7126C26.02 17.7126 25.7675 17.7126 25.3888 17.5863L23.495 19.4801C24.3788 19.8588 25.3887 19.9851 26.3988 19.9851C28.7975 19.9851 30.9438 19.1013 32.585 17.4601L35.11 14.9351C36.7513 13.2938 37.635 11.1476 37.635 8.74885C37.635 3.95135 33.7213 0.0375977 28.9237 0.0375977Z" fill="black"/>
<path id="Vector_3" d="M12.511 26.4237C12.1323 26.4237 11.8798 26.2974 11.6273 26.0449C11.1223 25.5399 11.1223 24.7824 11.6273 24.2774L24.2523 11.6524C24.7573 11.1474 25.5148 11.1474 26.0198 11.6524C26.5248 12.1574 26.5248 12.9149 26.0198 13.4199L13.3948 26.0449C13.1423 26.2974 12.8898 26.4237 12.511 26.4237Z" fill="black"/>
</g>
</svg>
