<svg width="21" height="40" viewBox="0 0 21 40" fill="none" xmlns="http://www.w3.org/2000/svg">
<g id="Group">
<path id="Vector" d="M19.1671 0.781813H13.4591C6.18927 0.709073 5.26075 5.2083 5.26075 10.0777V13.6184H2.0516C1.42047 13.5457 0.907003 14.057 0.981883 14.6881V21.1064C0.907003 21.7376 1.42047 22.2489 2.0516 22.1762H5.26075V38.2219C5.19443 38.8531 5.70576 39.3644 6.33689 39.2916H12.8729C13.504 39.3644 14.0153 38.8531 13.8142 38.2219L13.8185 22.1762H19.1671C19.7982 22.2489 20.3117 21.7376 20.2368 21.1064V14.6881C20.3117 14.057 19.7982 13.5457 19.1671 13.6184H13.8121L13.8185 10.4093C14.026 9.04217 14.026 9.26467 15.2947 9.33955H19.1222C19.4195 9.27323 19.7362 9.3096 19.9587 9.09352C20.1812 8.87744 20.3095 8.58219 20.2347 8.26984V1.85153C20.3117 1.2204 19.7982 0.709073 19.1671 0.781813ZM18.0225 7.08031L15.3396 6.97762C12.0171 6.97762 11.739 8.78116 11.739 10.6275L11.7304 14.6839C11.7304 14.9877 11.8502 15.2786 12.0642 15.4947C12.2781 15.7087 12.5691 15.8285 12.8729 15.8285H18.0974V19.9618H12.8771C12.246 19.9618 11.7347 20.4732 11.7325 21.1043L11.7304 37.1522H7.40019V21.1064C7.40019 20.4753 6.97016 19.964 6.33689 19.964H3.12132V15.8306H6.33689C6.64069 15.8306 6.93165 15.7108 7.1456 15.4968C7.35954 15.2808 7.39805 14.9898 7.39805 14.686V10.0755C7.39805 5.2789 8.36721 2.99399 13.4569 2.99399H18.0203L18.0225 7.08031Z" fill="black"/>
</g>
</svg>
