<svg width="88" height="55" viewBox="0 0 88 55" fill="none" xmlns="http://www.w3.org/2000/svg">
<path d="M17 24C38.0883 24 49.9117 24 71 24" stroke="black"/>
<path d="M17.5 24L44 2L70.5 24" stroke="black" stroke-linejoin="round"/>
<rect x="27.5" y="9.5" width="33" height="33" rx="1.78571" fill="white" stroke="black"/>
<path d="M28 12L60 12" stroke="#E4E6E8" stroke-width="0.6"/>
<path d="M28 15L60 15" stroke="#E4E6E8" stroke-width="0.6"/>
<path d="M28 18L60 18" stroke="#E4E6E8" stroke-width="0.6"/>
<path d="M28 21L60 21" stroke="#E4E6E8" stroke-width="0.6"/>
<path d="M28 24L60 24" stroke="#E4E6E8" stroke-width="0.6"/>
<path d="M28 27L60 27" stroke="#E4E6E8" stroke-width="0.6"/>
<path d="M28 30L60 30" stroke="#E4E6E8" stroke-width="0.6"/>
<path d="M28 33L60 33" stroke="#E4E6E8" stroke-width="0.6"/>
<path d="M28 36L60 36" stroke="#E4E6E8" stroke-width="0.6"/>
<path d="M43.7137 37.452L70.5 24.7894V53.5H17.5V24.8022L43.2798 37.4489L43.496 37.555L43.7137 37.452Z" fill="#61FCF9" stroke="black"/>
<path d="M83.5 22V25.5M84.5 26.5C85.3 26.5 86.8333 26.5 88 26.5M83.5 27.5V31M82.5 26.5H79" stroke="black"/>
<path d="M4.5 37V40.5M5.5 41.5C6.3 41.5 7.83333 41.5 9 41.5M4.5 42.5V46M3.5 41.5H0" stroke="black"/>
<path d="M21 50L33 43" stroke="black"/>
<path d="M67 50L55 43" stroke="black"/>
</svg>
