<svg width="24" height="20" viewBox="0 0 24 20" fill="none" xmlns="http://www.w3.org/2000/svg">
<g id="Group 40193">
<rect id="icons8-language-48 3" width="24" height="20" rx="0.1" fill="black"/>
<g id="Group 40171">
<path id="Vector" d="M6.69242 9.00311C6.51738 8.37649 6.30233 7.28379 6.30233 7.28379H6.27733C6.27733 7.28379 6.06228 8.37649 5.88724 9.00311L5.33212 10.9451H7.23754L6.69242 9.00311ZM2.0314 14.1766L4.90703 5.41947C4.99205 5.16572 5.2171 5 5.47715 5H7.10251C7.35756 5 7.58761 5.1709 7.67263 5.41947L10.5483 14.1766C10.6783 14.5805 10.3932 15 9.97813 15H8.83288C8.70346 14.9999 8.57753 14.9565 8.47389 14.8762C8.37024 14.796 8.29443 14.6832 8.25776 14.5546L7.78766 12.9026H4.777L4.3219 14.5495C4.24688 14.8136 4.01183 15 3.74678 15H2.60153C2.19144 15 1.90137 14.5805 2.0314 14.1766Z" fill="#F3EFC3"/>
<path id="Vector_2" d="M22 7.91587C22 8.25953 21.7188 8.5407 21.375 8.5407H20.7812C20.4219 9.76953 19.651 11.0088 18.5573 12.1803C18.9948 12.5136 19.4479 12.8312 19.9167 13.1176C20.2031 13.2946 20.2969 13.6643 20.1302 13.9611L19.7187 14.6849C19.5417 14.9921 19.151 15.091 18.849 14.9088C18.1927 14.5026 17.5729 14.0704 17.0052 13.6122C16.4375 14.0652 15.8229 14.5026 15.1615 14.9088C14.8594 15.091 14.4687 14.9921 14.2917 14.6849L13.8802 13.9611C13.7135 13.6695 13.8073 13.2946 14.099 13.1176C14.5833 12.8208 15.0365 12.5084 15.4583 12.1803C15.0469 11.743 14.6823 11.2952 14.3646 10.8422C14.1562 10.5454 14.25 10.134 14.5573 9.95178L14.8958 9.74871L15.276 9.52481C15.5573 9.35819 15.9219 9.43629 16.1094 9.70184C16.3698 10.0663 16.6719 10.4308 17.0156 10.7901C17.7187 10.0507 18.2552 9.28529 18.5781 8.5407H12.625C12.2813 8.5407 12 8.25953 12 7.91587V7.08277C12 6.73911 12.2813 6.45794 12.625 6.45794H15.9583V5.62483C15.9583 5.28117 16.2396 5 16.5833 5H17.4167C17.7604 5 18.0417 5.28117 18.0417 5.62483V6.45794H21.375C21.7188 6.45794 22 6.73911 22 7.08277V7.91587Z" fill="#F3EFC3"/>
</g>
</g>
</svg>
