<svg width="38" height="28" viewBox="0 0 38 28" fill="none" xmlns="http://www.w3.org/2000/svg">
<rect x="0.75" y="2.75" width="32.5" height="24.5" rx="1.25" fill="#F3EFC3" stroke="black" stroke-width="0.5"/>
<rect x="7" y="3" width="1" height="24" fill="#D9D4A2"/>
<rect x="9" y="4" width="23" height="3" fill="#D9D4A2"/>
<rect x="2" y="4" width="4" height="3" fill="#D9D4A2"/>
<rect x="9" y="9" width="23" height="1" fill="#D9D4A2"/>
<rect x="9" y="18" width="19" height="1" fill="#D9D4A2"/>
<rect x="9" y="12" width="23" height="1" fill="#D9D4A2"/>
<rect x="9" y="21" width="21" height="1" fill="#D9D4A2"/>
<rect x="9" y="15" width="12" height="1" fill="#D9D4A2"/>
<rect x="9" y="24" width="23" height="1" fill="url(#paint0_linear_3656_416)"/>
<rect x="26.25" y="0.25" width="11.5" height="11.5" rx="5.75" fill="#EA4335"/>
<rect x="26.25" y="0.25" width="11.5" height="11.5" rx="5.75" stroke="black" stroke-width="0.5"/>
<path d="M32.166 2.25009C32.166 2.25009 32.166 5.74222 32.166 7.33831" stroke="white"/>
<path d="M31.9964 9H32.3495V9.34816H31.9964V9Z" stroke="white" stroke-width="0.7"/>
<rect x="4" y="21" width="2" height="1" fill="#D9D4A2"/>
<rect x="4" y="9" width="2" height="1" fill="#D9D4A2"/>
<rect x="4" y="12" width="2" height="1" fill="#D9D4A2"/>
<rect x="4" y="15" width="2" height="1" fill="#D9D4A2"/>
<rect x="4" y="18" width="2" height="1" fill="#D9D4A2"/>
<circle cx="2.5" cy="21.5" r="0.5" fill="#D9D4A2"/>
<circle cx="2.5" cy="9.5" r="0.5" fill="#D9D4A2"/>
<circle cx="2.5" cy="12.5" r="0.5" fill="#D9D4A2"/>
<circle cx="2.5" cy="15.5" r="0.5" fill="#D9D4A2"/>
<circle cx="2.5" cy="18.5" r="0.5" fill="#D9D4A2"/>
<defs>
<linearGradient id="paint0_linear_3656_416" x1="9" y1="24.5" x2="32" y2="24.5" gradientUnits="userSpaceOnUse">
<stop stop-color="#D9D4A2"/>
<stop offset="0.465" stop-color="#EE9B6D"/>
<stop offset="1" stop-color="#EA4335"/>
</linearGradient>
</defs>
</svg>
