<svg width="39" height="28" viewBox="0 0 39 28" fill="none" xmlns="http://www.w3.org/2000/svg">
<path id="Vector" fill-rule="evenodd" clip-rule="evenodd" d="M35.9627 3.98622L21.0227 16.0862C20.1468 16.7956 18.8786 16.7956 18.0027 16.0862L3.06264 3.98622C2.98462 4.21581 2.94238 4.46137 2.94238 4.71657V23.2332C2.94238 24.5115 4.00221 25.5478 5.30957 25.5478H33.7158C35.0232 25.5478 36.083 24.5115 36.083 23.2332V4.71657C36.083 4.46137 36.0408 4.21581 35.9627 3.98622ZM5.30957 0.0874023H33.7158C36.3305 0.0874023 38.4502 2.15995 38.4502 4.71657V23.2332C38.4502 25.7899 36.3305 27.8624 33.7158 27.8624H5.30957C2.69485 27.8624 0.575195 25.7899 0.575195 23.2332V4.71657C0.575195 2.15995 2.69485 0.0874023 5.30957 0.0874023ZM4.81173 2.40199L18.0127 13.0569C18.8844 13.7606 20.1433 13.7633 21.0183 13.0636L34.35 2.40199H4.81173Z" fill="black"/>
</svg>
