<svg width="17" height="20" viewBox="0 0 17 20" fill="none" xmlns="http://www.w3.org/2000/svg">
<g id="Group 12343">
<path id="Vector" d="M10.8679 1H1.75907C1.55775 1 1.36468 1.07876 1.22233 1.21897C1.07997 1.35917 1 1.54932 1 1.7476V18.1947C1 18.393 1.07997 18.5832 1.22233 18.7234C1.36468 18.8636 1.55775 18.9423 1.75907 18.9423H15.4223C15.6237 18.9423 15.8167 18.8636 15.9591 18.7234C16.1014 18.5832 16.1814 18.393 16.1814 18.1947V6.23318M10.8679 1L16.1814 6.23318M10.8679 1L10.8685 6.23318H16.1814" stroke="#504e40" stroke-width="1.5" stroke-linecap="round" stroke-linejoin="round"/>
<path id="Vector_2" d="M15.4223 18.9423H1.75907C1.55775 18.9423 1.36468 18.8636 1.22233 18.7234C1.07997 18.5832 1 18.393 1 18.1947V1.7476C1 1.54932 1.07997 1.35917 1.22233 1.21897C1.36468 1.07876 1.55775 1 1.75907 1H10.8679L16.1814 6.23318V18.1947C16.1814 18.393 16.1014 18.5832 15.9591 18.7234C15.8167 18.8636 15.6237 18.9423 15.4223 18.9423Z" stroke="#504e40" stroke-width="1.5" stroke-linecap="round" stroke-linejoin="round"/>
<path id="Vector_3" d="M5.14014 12.0413H12.041" stroke="#504e40" stroke-width="1.5" stroke-linecap="round" stroke-linejoin="round"/>
<path id="Vector_4" d="M8.59082 8.59088L8.59082 15.4918" stroke="#504e40" stroke-width="1.5" stroke-linecap="round" stroke-linejoin="round"/>
</g>
</svg>
