<svg width="38" height="38" viewBox="0 0 38 38" fill="none" xmlns="http://www.w3.org/2000/svg">
<g id="Group 11744">
<path id="Ellipse 833" opacity="0.22" d="M18.801 37.602C29.1845 37.602 37.602 29.1845 37.602 18.801C37.602 8.41749 29.1845 0 18.801 0C8.41749 0 0 8.41749 0 18.801C0 29.1845 8.41749 37.602 18.801 37.602Z" fill="#C3CDD8"/>
<g id="Group 11742">
<g id="Group" filter="url(#filter0_d_1029_1202)">
<path id="Ellipse 835" d="M19 28C23.9706 28 28 23.9706 28 19C28 14.0294 23.9706 10 19 10C14.0294 10 10 14.0294 10 19C10 23.9706 14.0294 28 19 28Z" fill="white"/>
</g>
<g id="icons Q2">
<path id="Path 4" d="M18.538 7.00004C15.883 7.01211 13.3141 7.94365 11.2684 9.63619C9.22264 11.3287 7.82649 13.6777 7.31739 16.2836C6.80829 18.8894 7.2177 21.5911 8.47596 23.9292C9.73422 26.2672 11.7636 28.0971 14.2189 29.1076C16.6742 30.1181 19.4038 30.2467 21.9433 29.4716C24.4827 28.6965 26.6752 27.0656 28.1478 24.8563C29.6204 22.647 30.2821 19.9957 30.0203 17.3535C29.7585 14.7114 28.5895 12.2415 26.712 10.364C25.6375 9.29358 24.3625 8.44548 22.96 7.86825C21.5574 7.29102 20.0548 6.99599 18.538 7.00004ZM23.783 19.587H19.583V23.787C19.583 24.0655 19.4724 24.3326 19.2755 24.5295C19.0786 24.7264 18.8115 24.837 18.533 24.837C18.2546 24.837 17.9875 24.7264 17.7906 24.5295C17.5937 24.3326 17.483 24.0655 17.483 23.787V19.587H13.283C13.0046 19.587 12.7375 19.4764 12.5406 19.2795C12.3437 19.0826 12.233 18.8155 12.233 18.537C12.233 18.2586 12.3437 17.9915 12.5406 17.7946C12.7375 17.5977 13.0046 17.487 13.283 17.487H17.483V13.287C17.483 13.0086 17.5937 12.7415 17.7906 12.5446C17.9875 12.3477 18.2546 12.237 18.533 12.237C18.8115 12.237 19.0786 12.3477 19.2755 12.5446C19.4724 12.7415 19.583 13.0086 19.583 13.287V17.487H23.783C24.0615 17.487 24.3286 17.5977 24.5255 17.7946C24.7224 17.9915 24.833 18.2586 24.833 18.537C24.833 18.8155 24.7224 19.0826 24.5255 19.2795C24.3286 19.4764 24.0615 19.587 23.783 19.587Z" fill="#0F73EE"/>
</g>
</g>
</g>
<defs>
<filter id="filter0_d_1029_1202" x="4" y="7" width="30" height="30" filterUnits="userSpaceOnUse" color-interpolation-filters="sRGB">
<feFlood flood-opacity="0" result="BackgroundImageFix"/>
<feColorMatrix in="SourceAlpha" type="matrix" values="0 0 0 0 0 0 0 0 0 0 0 0 0 0 0 0 0 0 127 0" result="hardAlpha"/>
<feOffset dy="3"/>
<feGaussianBlur stdDeviation="3"/>
<feColorMatrix type="matrix" values="0 0 0 0 0 0 0 0 0 0 0 0 0 0 0 0 0 0 0.161 0"/>
<feBlend mode="normal" in2="BackgroundImageFix" result="effect1_dropShadow_1029_1202"/>
<feBlend mode="normal" in="SourceGraphic" in2="effect1_dropShadow_1029_1202" result="shape"/>
</filter>
</defs>
</svg>
