<svg width="19" height="15" viewBox="0 0 19 15" fill="none" xmlns="http://www.w3.org/2000/svg">
<path id="Vector" d="M6.56753 10.5489C8.61632 10.197 10.7101 10.197 12.7589 10.5489M3.87632 14C3.87632 14 5.94887 12.7616 9.66368 12.7616C13.3785 12.7616 15.4511 14 15.4511 14L18.3146 5.22392C18.3354 5.1643 18.338 5.0998 18.3219 5.0387C18.3059 4.97761 18.2719 4.92272 18.2243 4.8811C18.1768 4.83948 18.1179 4.81304 18.0553 4.80517C17.9926 4.7973 17.929 4.80836 17.8726 4.83694L13.7376 6.8988C13.666 6.93419 13.5837 6.94142 13.5071 6.91906C13.4304 6.8967 13.3649 6.84639 13.3235 6.77806L9.93611 1.15205C9.90777 1.10561 9.86798 1.06724 9.82055 1.04061C9.77311 1.01398 9.71963 1 9.66523 1C9.61084 1 9.55736 1.01398 9.50992 1.04061C9.46249 1.06724 9.42269 1.10561 9.39436 1.15205L6.00382 6.78038C5.96258 6.84904 5.89695 6.89961 5.82006 6.92199C5.74316 6.94437 5.66065 6.93692 5.589 6.90112L1.46014 4.84081C1.40376 4.8124 1.34019 4.80146 1.27756 4.80939C1.21493 4.81731 1.15609 4.84374 1.10856 4.88529C1.06103 4.92684 1.02697 4.98163 1.01074 5.04264C0.994515 5.10365 0.996855 5.16812 1.01746 5.22779L3.87632 14Z" stroke="black" stroke-width="1.23831" stroke-linecap="round" stroke-linejoin="round"/>
</svg>
