<svg width="15" height="15" viewBox="0 0 15 15" fill="none" xmlns="http://www.w3.org/2000/svg">
<path id="Vector" d="M15 14.2013L11.1178 10.2077C12.1485 8.97403 12.6605 7.39388 12.5475 5.79548C12.4346 4.19707 11.7052 2.70327 10.5111 1.62435C9.31689 0.545427 7.74966 -0.0356905 6.13489 0.00169848C4.52012 0.0390875 2.98193 0.69211 1.8398 1.82513C0.697673 2.95815 0.0394017 4.48407 0.00171214 6.08597C-0.0359774 7.68786 0.549812 9.24259 1.63741 10.4272C2.725 11.6119 4.23081 12.3354 5.84206 12.4475C7.45332 12.5596 9.04617 12.0516 10.2898 11.0291L14.1948 15L15 14.2013ZM1.15311 6.24231C1.15311 5.23394 1.45453 4.24822 2.01926 3.4098C2.58398 2.57137 3.38664 1.9179 4.32574 1.53201C5.26484 1.14613 6.29819 1.04516 7.29513 1.24188C8.29208 1.43861 9.20782 1.92418 9.92658 2.6372C10.6453 3.35023 11.1348 4.25867 11.3331 5.24766C11.5314 6.23666 11.4296 7.26177 11.0407 8.19338C10.6517 9.12499 9.99294 9.92125 9.14778 10.4815C8.30261 11.0417 7.30896 11.3407 6.29249 11.3407C4.92944 11.3407 3.62222 10.8036 2.6584 9.84742C1.69458 8.89128 1.15311 7.59449 1.15311 6.24231Z" fill="#777B87"/>
</svg>
