<svg width="24" height="24" viewBox="0 0 24 24" fill="none" xmlns="http://www.w3.org/2000/svg">
<g id="Vector">
<path fill-rule="evenodd" clip-rule="evenodd" d="M19.6434 18.0626C21.4574 15.8848 22.362 13.0914 22.1689 10.2635C21.9759 7.43573 20.7 4.7912 18.6068 2.88009C16.5136 0.968989 13.7642 -0.0615536 10.9305 0.00284627C8.09683 0.0672461 5.39707 1.22163 3.39285 3.22586C1.38862 5.23008 0.234238 7.92984 0.169838 10.7635C0.105439 13.5972 1.13598 16.3466 3.04709 18.4398C4.95819 20.533 7.60272 21.8089 10.4305 22.0019C13.2584 22.195 16.0518 21.2904 18.2296 19.4764L19.6434 18.0626ZM3.71139 6.0275C2.72246 7.50754 2.19462 9.2476 2.19462 11.0276C2.19727 13.4138 3.14633 15.7014 4.83358 17.3887C6.52084 19.0759 8.80849 20.025 11.1946 20.0276C12.9747 20.0276 14.7147 19.4998 16.1948 18.5109C17.6748 17.5219 18.8283 16.1163 19.5095 14.4718C20.1907 12.8272 20.369 11.0176 20.0217 9.27182C19.6744 7.52599 18.8173 5.92234 17.5586 4.66367C16.2999 3.405 14.6963 2.54783 12.9504 2.20056C11.2046 1.85329 9.39501 2.03152 7.75047 2.71271C6.10594 3.3939 4.70033 4.54745 3.71139 6.0275Z" fill="black"/>
<path d="M21.48 22.728C21.5729 22.8209 21.6832 22.8946 21.8046 22.9449C21.926 22.9952 22.0561 23.0211 22.1875 23.0211C22.3189 23.0211 22.449 22.9952 22.5704 22.9449C22.6918 22.8946 22.8021 22.8209 22.895 22.728C22.9879 22.6351 23.0616 22.5248 23.1119 22.4034C23.1622 22.282 23.1881 22.1519 23.1881 22.0205C23.1881 21.8891 23.1622 21.759 23.1119 21.6376C23.0616 21.5162 22.9879 21.4059 22.895 21.313L19.6434 18.0626L18.2296 19.4764L21.48 22.728Z" fill="black"/>
</g>
</svg>
