<svg width="39" height="33" viewBox="0 0 39 33" fill="none" xmlns="http://www.w3.org/2000/svg">
<path id="Vector" d="M36.9306 4.10734C37.1747 3.64965 37.3788 3.16728 37.5364 2.66472C37.685 2.18909 37.5319 1.67307 37.1459 1.36121C36.762 1.0516 36.225 1.0157 35.8034 1.26698C34.6651 1.95127 33.4403 2.45607 32.1511 2.7769C30.6023 1.36121 28.5675 0.5625 26.4662 0.5625C21.7954 0.5625 17.9966 4.40349 17.9966 9.12171C17.9966 9.24062 17.9988 9.35728 18.0032 9.47619C13.0439 8.85024 8.46631 6.30154 5.27773 2.34614C5.03365 2.04101 4.65643 1.88172 4.2659 1.90864C3.87759 1.94005 3.52922 2.15992 3.33395 2.50319C2.58396 3.80446 2.18677 5.29194 2.18677 6.80859C2.18677 8.24447 2.53958 9.62651 3.1875 10.8515C3.0233 10.8784 2.86132 10.939 2.71266 11.0265C2.35097 11.2441 2.12686 11.6816 2.12686 12.1057C2.12686 14.6521 3.24742 16.9899 5.05362 18.5783C5.02699 18.603 5.00258 18.6299 4.97595 18.6569C4.69859 18.9755 4.60761 19.4152 4.73631 19.819C5.51515 22.2735 7.31913 24.185 9.58243 25.1251C7.27253 26.2805 4.58986 26.7315 2.02479 26.4241C1.48337 26.3747 0.957489 26.6843 0.768881 27.2138C0.584711 27.7388 0.779976 28.3244 1.24595 28.6273C4.77847 30.9157 8.85906 32.125 13.0484 32.125C26.7613 32.125 34.958 20.8623 34.958 9.97426C34.958 9.85087 34.958 9.72971 34.9558 9.60632C36.2805 8.56082 37.4299 7.31115 38.3751 5.882C38.668 5.44001 38.637 4.8522 38.2975 4.44387C37.9624 4.04227 37.4099 3.90317 36.9306 4.10734ZM33.0586 8.0448C32.7324 8.28261 32.546 8.67075 32.566 9.07908C32.5793 9.37523 32.586 9.67587 32.586 9.97202C32.586 19.6822 25.2791 29.7266 13.0506 29.7266C10.8561 29.7266 8.69264 29.3542 6.64458 28.6318C9.09649 28.1584 11.3953 27.1017 13.4012 25.5132C13.7962 25.1991 13.9537 24.6696 13.7939 24.1873C13.6342 23.7071 13.1926 23.3796 12.6911 23.3706C10.7141 23.3302 8.92119 22.3363 7.82283 20.7636C8.38421 20.7254 8.93451 20.6312 9.46927 20.4854C9.99959 20.3395 10.3591 19.8437 10.3413 19.2873C10.3235 18.7331 9.92858 18.262 9.38938 18.1521C7.16381 17.7011 5.41752 16.0364 4.77181 13.8781C5.36204 14.0284 5.96781 14.1159 6.57358 14.1361C7.09502 14.1338 7.57875 13.8108 7.74073 13.3037C7.90271 12.7967 7.71188 12.238 7.27032 11.9419C5.57284 10.7932 4.5588 8.87716 4.5588 6.81084C4.5588 6.31052 4.61871 5.81694 4.73409 5.33457C8.57504 9.3169 13.7873 11.722 19.308 12.0024C19.6985 12.0047 20.0402 11.8633 20.2776 11.5739C20.515 11.2845 20.606 10.9009 20.5217 10.5329C20.4174 10.0775 20.3642 9.60407 20.3642 9.12619C20.3642 5.72719 23.1001 2.96312 26.4618 2.96312C28.1415 2.96312 29.7635 3.67209 30.9107 4.91053C31.1903 5.21342 31.603 5.34578 32.0068 5.26726C32.373 5.19322 32.7346 5.10797 33.0919 5.00925C32.9321 5.1304 32.7657 5.24258 32.5904 5.34803C32.1111 5.63745 31.8981 6.22975 32.0778 6.76372C32.2576 7.29769 32.7968 7.64768 33.3404 7.56467C33.4758 7.54897 33.6089 7.53102 33.7442 7.51307C33.5246 7.69704 33.2938 7.87428 33.0586 8.0448Z" fill="black"/>
</svg>
