<svg width="24" height="24" viewBox="0 0 24 24" fill="none" xmlns="http://www.w3.org/2000/svg">
<g id="Frame 279">
<path id="Vector" d="M14.7 1H3.9C3.66131 1 3.43239 1.09658 3.2636 1.26849C3.09482 1.44039 3 1.67355 3 1.91667V22.0833C3 22.3264 3.09482 22.5596 3.2636 22.7315C3.43239 22.9034 3.66131 23 3.9 23H20.1C20.3387 23 20.5676 22.9034 20.7364 22.7315C20.9052 22.5596 21 22.3264 21 22.0833V7.41667M14.7 1L21 7.41667M14.7 1L14.7007 7.41667H21" stroke="black" stroke-linecap="round" stroke-linejoin="round"/>
<path id="Vector_2" d="M18 12L6 12" stroke="black" stroke-linecap="round" stroke-linejoin="round"/>
<path id="Vector_3" d="M18 20H6" stroke="black" stroke-linecap="round" stroke-linejoin="round"/>
<path id="Vector_4" d="M6 16L18 16" stroke="black" stroke-linecap="round" stroke-linejoin="round"/>
</g>
</svg>
