<svg width="38" height="38" viewBox="0 0 38 38" fill="none" xmlns="http://www.w3.org/2000/svg">
<g id="Group 11743">
<path id="Ellipse 834" d="M18.801 37.602C29.1845 37.602 37.602 29.1845 37.602 18.801C37.602 8.41749 29.1845 0 18.801 0C8.41749 0 0 8.41749 0 18.801C0 29.1845 8.41749 37.602 18.801 37.602Z" fill="white"/>
<g id="Group 11741">
<g id="Group" filter="url(#filter0_d_1029_1194)">
<path id="Path 21213" d="M8.45996 10.849L8.47696 26.183C8.47696 26.3635 8.51249 26.5421 8.58154 26.7088C8.65059 26.8755 8.75181 27.027 8.87939 27.1546C9.00698 27.2822 9.15845 27.3834 9.32515 27.4525C9.49185 27.5215 9.67052 27.557 9.85095 27.557H28.127C28.3074 27.557 28.4861 27.5215 28.6528 27.4525C28.8195 27.3834 28.9709 27.2822 29.0985 27.1546C29.2261 27.027 29.3273 26.8755 29.3964 26.7088C29.4654 26.5421 29.501 26.3635 29.501 26.183V14.23C29.5011 14.0493 29.4655 13.8703 29.3963 13.7034C29.3272 13.5364 29.2257 13.3848 29.0978 13.2571C28.9698 13.1295 28.818 13.0283 28.6508 12.9595C28.4837 12.8906 28.3047 12.8555 28.124 12.856L18.167 12.882C17.406 12.882 16.773 12.74 16.773 11.982V10.852C16.773 10.4876 16.6282 10.1381 16.3705 9.88046C16.1129 9.62279 15.7634 9.47803 15.399 9.47803H9.83296C9.46925 9.47829 9.12047 9.62276 8.8631 9.87976C8.60573 10.1368 8.46075 10.4853 8.45996 10.849Z" fill="#1F2A39"/>
</g>
<g id="arrow-down-short">
<path id="Path 21214" fill-rule="evenodd" clip-rule="evenodd" d="M15.4859 20.7481C15.5345 20.7967 15.5921 20.8353 15.6556 20.8616C15.7191 20.8879 15.7872 20.9015 15.8559 20.9015C15.9246 20.9015 15.9927 20.8879 16.0561 20.8616C16.1196 20.8353 16.1773 20.7967 16.2259 20.7481L18.9909 17.9811L21.7559 20.7481C21.8045 20.7967 21.8622 20.8352 21.9256 20.8615C21.9891 20.8878 22.0572 20.9014 22.1259 20.9014C22.1946 20.9014 22.2626 20.8878 22.3261 20.8615C22.3896 20.8352 22.4473 20.7967 22.4959 20.7481C22.5445 20.6995 22.583 20.6418 22.6093 20.5783C22.6356 20.5149 22.6491 20.4468 22.6491 20.3781C22.6491 20.3094 22.6356 20.2413 22.6093 20.1779C22.583 20.1144 22.5445 20.0567 22.4959 20.0081L19.3609 16.8731C19.3123 16.8245 19.2546 16.7859 19.1911 16.7596C19.1277 16.7333 19.0596 16.7197 18.9909 16.7197C18.9222 16.7197 18.8541 16.7333 18.7906 16.7596C18.7271 16.7859 18.6695 16.8245 18.6209 16.8731L15.4859 20.0081C15.4373 20.0567 15.3987 20.1143 15.3724 20.1778C15.3461 20.2413 15.3325 20.3094 15.3325 20.3781C15.3325 20.4468 15.3461 20.5149 15.3724 20.5784C15.3987 20.6418 15.4373 20.6995 15.4859 20.7481Z" fill="white"/>
<path id="Path 21215" fill-rule="evenodd" clip-rule="evenodd" d="M18.9927 24.041C19.1314 24.041 19.2645 23.9859 19.3625 23.8878C19.4606 23.7898 19.5157 23.6567 19.5157 23.518V18.289C19.5188 18.2185 19.5076 18.1481 19.4827 18.082C19.4578 18.0159 19.4199 17.9555 19.371 17.9045C19.3222 17.8535 19.2636 17.8129 19.1986 17.7852C19.1337 17.7575 19.0638 17.7432 18.9932 17.7432C18.9226 17.7432 18.8527 17.7575 18.7878 17.7852C18.7229 17.8129 18.6642 17.8535 18.6154 17.9045C18.5666 17.9555 18.5286 18.0159 18.5037 18.082C18.4789 18.1481 18.4676 18.2185 18.4707 18.289V23.515C18.4703 23.5839 18.4835 23.6521 18.5096 23.7159C18.5356 23.7796 18.574 23.8376 18.6225 23.8864C18.671 23.9353 18.7286 23.9741 18.7922 24.0006C18.8557 24.0272 18.9239 24.0409 18.9927 24.041Z" fill="white"/>
</g>
</g>
</g>
<defs>
<filter id="filter0_d_1029_1194" x="2.45996" y="6.47803" width="33.041" height="30.0791" filterUnits="userSpaceOnUse" color-interpolation-filters="sRGB">
<feFlood flood-opacity="0" result="BackgroundImageFix"/>
<feColorMatrix in="SourceAlpha" type="matrix" values="0 0 0 0 0 0 0 0 0 0 0 0 0 0 0 0 0 0 127 0" result="hardAlpha"/>
<feOffset dy="3"/>
<feGaussianBlur stdDeviation="3"/>
<feColorMatrix type="matrix" values="0 0 0 0 0 0 0 0 0 0 0 0 0 0 0 0 0 0 0.102 0"/>
<feBlend mode="normal" in2="BackgroundImageFix" result="effect1_dropShadow_1029_1194"/>
<feBlend mode="normal" in="SourceGraphic" in2="effect1_dropShadow_1029_1194" result="shape"/>
</filter>
</defs>
</svg>
